<svg xmlns="http://www.w3.org/2000/svg" width="14.188" height="17.79" viewBox="0 0 14.188 17.79">
  <path id="Caminho_2740" data-name="Caminho 2740" d="M-96.712,606.77v.344h-2.927v-.342c0-3.469.016-6.938-.014-10.407a6.9,6.9,0,0,0-.315-1.92,3.193,3.193,0,0,0-2.305-2.208,5.263,5.263,0,0,0-3.175.047,3.525,3.525,0,0,0-2.421,2.929,7.6,7.6,0,0,0-.116,1.365c-.009,3.4,0,6.807,0,10.211v.331H-110.9v-17.79h2.9v1.924c.15-.128.259-.224.371-.316a6.742,6.742,0,0,1,4.472-1.49,7.07,7.07,0,0,1,3.1.643,5.666,5.666,0,0,1,3.221,4.4,9.467,9.467,0,0,1,.114,1.534C-96.707,599.607-96.712,603.188-96.712,606.77Z" transform="translate(110.899 -589.327)" fill="#004a99"/>
</svg>
