<svg xmlns="http://www.w3.org/2000/svg" width="39" height="33" viewBox="0 0 39 33">
  <g id="coin" transform="translate(0.5 0.5)">
    <path id="Caminho_2736" data-name="Caminho 2736" d="M27.314,4.686A15.9,15.9,0,0,0,16,0c-4.274,0-6.579,1.255-2.868,1.875,3.536.591,10.955,6.628,11.6,11.21,0-.092,0,1.268,0,1.469v2.319c-1.391,7.576-7.035,12.214-12.446,14.765C10.426,31.251,11.726,32,16,32A16,16,0,0,0,27.314,4.686ZM16,30.125c-.16-.043,9.423-5.623,9.423-16.576,0-7.789-14-11.674-9.423-11.674a14.125,14.125,0,0,1,0,28.25Z" transform="translate(6)" fill="#004a99" stroke="#004a99" stroke-miterlimit="10" stroke-width="1"/>
    <path id="Caminho_2738" data-name="Caminho 2738" d="M27.314,4.686A16,16,0,0,0,4.686,27.314,16,16,0,0,0,27.314,4.686ZM16,30.125A14.125,14.125,0,1,1,30.125,16,14.141,14.141,0,0,1,16,30.125Z" fill="#004a99" stroke="#004a99" stroke-miterlimit="10" stroke-width="1"/>
    <path id="Caminho_2737" data-name="Caminho 2737" d="M182.692,105.438h-2.008a2.075,2.075,0,1,1,0-4.15H184.7a.938.938,0,0,0,0-1.875h-2.075V97.339a.937.937,0,0,0-1.875,0v2.075h-.067a3.95,3.95,0,1,0,0,7.9h2.008a2.075,2.075,0,0,1,0,4.15h-4.017a.938.938,0,0,0,0,1.875h2.075v2.075a.938.938,0,1,0,1.875,0v-2.075h.067a3.95,3.95,0,0,0,0-7.9Z" transform="translate(-165.688 -90.376)" fill="#004a99" stroke="#004a99" stroke-miterlimit="10" stroke-width="1"/>
  </g>
</svg>
