<svg xmlns="http://www.w3.org/2000/svg" width="30.77" height="32" viewBox="0 0 30.77 32">
  <g id="percentage-discount" transform="translate(-6.161)">
    <g id="Layer_5_90_" transform="translate(6.161)">
      <g id="Grupo_4097" data-name="Grupo 4097" transform="translate(0)">
        <path id="Caminho_2731" data-name="Caminho 2731" d="M19.44,12.424a7.415,7.415,0,0,0,1.915-5.058A7.248,7.248,0,0,0,13.741,0,7.455,7.455,0,0,0,8.066,2.311a7.435,7.435,0,0,0-1.9,5.056,7.232,7.232,0,0,0,7.58,7.367A7.5,7.5,0,0,0,19.44,12.424Zm-5.7-9a3.8,3.8,0,0,1,3.986,3.944,4,4,0,0,1-.98,2.693,3.843,3.843,0,0,1-2.962,1.2A3.845,3.845,0,0,1,9.7,7.32,3.759,3.759,0,0,1,13.741,3.425Z" transform="translate(-6.161)" fill="#004a99"/>
        <path id="Caminho_2732" data-name="Caminho 2732" d="M47.775,27.95a2.174,2.174,0,0,0-1.374.627l-22.486,25a.473.473,0,0,0,.365.809h2.943a2.111,2.111,0,0,0,1.373-.614l22.347-25c.3-.338.282-.887-.466-.887Z" transform="translate(-22.016 -25.108)" fill="#004a99"/>
        <path id="Caminho_2733" data-name="Caminho 2733" d="M172.574,175.822a7.066,7.066,0,0,0-7.436,7.227,7.1,7.1,0,0,0,7.436,7.227,7.362,7.362,0,0,0,5.591-2.266,7.274,7.274,0,0,0,1.878-4.961A7.111,7.111,0,0,0,172.574,175.822Zm.044,11.137A3.8,3.8,0,0,1,168.641,183a4.031,4.031,0,0,1,.979-2.7,4.049,4.049,0,0,1,6.93,2.753,4.033,4.033,0,0,1-.979,2.7A3.825,3.825,0,0,1,172.618,186.959Z" transform="translate(-149.272 -158.275)" fill="#004a99"/>
      </g>
    </g>
  </g>
</svg>
